<svg width="84" height="45" viewBox="0 0 84 45" fill="none" xmlns="http://www.w3.org/2000/svg">
<path d="M1.86426 21V5.97755H10.9254V7.77677H3.96697V12.3074H10.145V14.0849H3.96697V21H1.86426ZM13.5074 5.97755H15.6101V21H13.5074V5.97755ZM29.3656 5.97755V7.79845H24.6399V21H22.5372V7.79845H17.8116V5.97755H29.3656Z" fill="#2C332F"/>
<path d="M6.79993 39.8012C9.03381 39.8012 10.1507 39.037 10.1507 37.5085C10.1507 37.0382 10.0479 36.6414 9.84212 36.3181C9.65106 35.9801 9.38653 35.6935 9.04851 35.4583C8.71048 35.2085 8.32103 34.9954 7.88013 34.819C7.45393 34.6427 6.99834 34.4663 6.51335 34.29C5.95488 34.0989 5.4258 33.8858 4.92612 33.6507C4.42644 33.4008 3.99289 33.1142 3.62548 32.7909C3.25806 32.4529 2.96413 32.0561 2.74368 31.6005C2.53793 31.1449 2.43506 30.5938 2.43506 29.9471C2.43506 28.6097 2.89065 27.5663 3.80184 26.8168C4.71302 26.0672 5.96958 25.6925 7.5715 25.6925C8.49739 25.6925 9.33509 25.7954 10.0846 26.0011C10.8488 26.1922 11.4073 26.4053 11.76 26.6404L11.0766 28.3819C10.768 28.1909 10.3051 28.0072 9.68781 27.8308C9.08525 27.6398 8.37981 27.5442 7.5715 27.5442C7.16 27.5442 6.77789 27.5883 6.42517 27.6765C6.07245 27.7647 5.76383 27.897 5.49929 28.0733C5.23475 28.2497 5.02165 28.4775 4.85999 28.7567C4.71302 29.0212 4.63954 29.3372 4.63954 29.7046C4.63954 30.1161 4.72037 30.4615 4.88203 30.7407C5.04369 31.02 5.27149 31.2698 5.56542 31.4903C5.85935 31.696 6.19737 31.8871 6.57948 32.0634C6.97629 32.2398 7.40984 32.4162 7.88013 32.5925C8.54147 32.857 9.14403 33.1216 9.68781 33.3861C10.2463 33.6507 10.7239 33.9666 11.1207 34.3341C11.5322 34.7015 11.8482 35.1424 12.0686 35.6567C12.2891 36.1564 12.3993 36.7663 12.3993 37.4865C12.3993 38.8239 11.907 39.8526 10.9223 40.5727C9.95234 41.2929 8.57822 41.6529 6.79993 41.6529C6.19737 41.6529 5.6389 41.6088 5.12453 41.5207C4.62484 41.4472 4.1766 41.359 3.77979 41.2561C3.38298 41.1386 3.03761 41.021 2.74368 40.9034C2.46445 40.7711 2.244 40.6609 2.08234 40.5727L2.72164 38.8092C3.05966 39.0002 3.57404 39.2133 4.26478 39.4485C4.95551 39.6836 5.80057 39.8012 6.79993 39.8012ZM25.1903 26.0452V27.897H20.3845V41.3223H18.2462V27.897H13.4404V26.0452H25.1903ZM33.1359 41.6529C32.1366 41.6529 31.2695 41.4986 30.5346 41.19C29.7998 40.8814 29.1973 40.4625 28.727 39.9334C28.2567 39.3897 27.904 38.7504 27.6688 38.0155C27.4484 37.2807 27.3381 36.4871 27.3381 35.6347V26.0452H29.4765V35.3922C29.4765 36.9206 29.8145 38.0302 30.4906 38.721C31.1666 39.4117 32.0484 39.7571 33.1359 39.7571C33.6797 39.7571 34.172 39.6763 34.6129 39.5146C35.0685 39.3382 35.458 39.0737 35.7813 38.721C36.1046 38.3683 36.3545 37.92 36.5308 37.3762C36.7072 36.8178 36.7954 36.1564 36.7954 35.3922V26.0452H38.9337V35.6347C38.9337 36.4871 38.8162 37.2807 38.581 38.0155C38.3606 38.7504 38.0078 39.3897 37.5229 39.9334C37.0526 40.4625 36.45 40.8814 35.7152 41.19C34.995 41.4986 34.1353 41.6529 33.1359 41.6529ZM55.1692 33.6727C55.1692 34.9954 54.9635 36.1491 54.552 37.1337C54.1405 38.1037 53.56 38.912 52.8104 39.5587C52.0609 40.1906 51.1644 40.6683 50.121 40.9916C49.0775 41.3002 47.9312 41.4545 46.682 41.4545C46.0647 41.4545 45.3813 41.4251 44.6318 41.3664C43.897 41.3223 43.2283 41.2267 42.6257 41.0798V26.2656C43.2283 26.1187 43.897 26.0232 44.6318 25.9791C45.3813 25.9203 46.0647 25.8909 46.682 25.8909C47.9312 25.8909 49.0775 26.0525 50.121 26.3759C51.1644 26.6845 52.0609 27.1621 52.8104 27.8088C53.56 28.4407 54.1405 29.249 54.552 30.2337C54.9635 31.2037 55.1692 32.35 55.1692 33.6727ZM46.8583 39.5807C48.8864 39.5807 50.4002 39.0663 51.3996 38.0376C52.3989 36.9941 52.8986 35.5392 52.8986 33.6727C52.8986 31.8062 52.3989 30.3586 51.3996 29.3299C50.4002 28.2864 48.8864 27.7647 46.8583 27.7647C46.2558 27.7647 45.7855 27.772 45.4475 27.7867C45.1241 27.8014 44.8963 27.8161 44.7641 27.8308V39.5146C44.8963 39.5293 45.1241 39.544 45.4475 39.5587C45.7855 39.5734 46.2558 39.5807 46.8583 39.5807ZM58.3413 26.0452H60.4796V41.3223H58.3413V26.0452ZM63.6443 33.6727C63.6443 32.3647 63.8353 31.211 64.2174 30.2117C64.6142 29.2123 65.1433 28.3819 65.8047 27.7206C66.4807 27.0446 67.2596 26.5375 68.1414 26.1995C69.0379 25.8615 69.9858 25.6925 70.9852 25.6925C71.9699 25.6925 72.8957 25.8615 73.7628 26.1995C74.6446 26.5375 75.4162 27.0446 76.0775 27.7206C76.7389 28.3819 77.2606 29.2123 77.6427 30.2117C78.0395 31.211 78.2379 32.3647 78.2379 33.6727C78.2379 34.9807 78.0395 36.1344 77.6427 37.1337C77.2606 38.1331 76.7389 38.9708 76.0775 39.6469C75.4162 40.3082 74.6446 40.8079 73.7628 41.1459C72.8957 41.4839 71.9699 41.6529 70.9852 41.6529C69.9858 41.6529 69.0379 41.4839 68.1414 41.1459C67.2596 40.8079 66.4807 40.3082 65.8047 39.6469C65.1433 38.9708 64.6142 38.1331 64.2174 37.1337C63.8353 36.1344 63.6443 34.9807 63.6443 33.6727ZM65.8928 33.6727C65.8928 34.5986 66.0104 35.4436 66.2455 36.2079C66.4807 36.9574 66.8114 37.5967 67.2376 38.1258C67.6785 38.6548 68.2075 39.0663 68.8248 39.3603C69.4567 39.6395 70.1622 39.7791 70.9411 39.7791C71.72 39.7791 72.4181 39.6395 73.0354 39.3603C73.6526 39.0663 74.1743 38.6548 74.6005 38.1258C75.0414 37.5967 75.3795 36.9574 75.6146 36.2079C75.8497 35.4436 75.9673 34.5986 75.9673 33.6727C75.9673 32.7468 75.8497 31.9091 75.6146 31.1596C75.3795 30.3954 75.0414 29.7487 74.6005 29.2197C74.1743 28.6906 73.6526 28.2864 73.0354 28.0072C72.4181 27.7133 71.72 27.5663 70.9411 27.5663C70.1622 27.5663 69.4567 27.7133 68.8248 28.0072C68.2075 28.2864 67.6785 28.6906 67.2376 29.2197C66.8114 29.7487 66.4807 30.3954 66.2455 31.1596C66.0104 31.9091 65.8928 32.7468 65.8928 33.6727Z" fill="#2C332F"/>
<path d="M31.7838 12.8796C31.7838 11.1751 33.0133 9.65667 35.4722 8.32439C37.9311 6.97251 41.073 6.06147 44.898 5.59125L44.898 7.44273C42.1659 7.89336 40.003 8.59868 38.4092 9.55871C36.7699 10.5383 35.9503 11.6453 35.9503 12.8796C35.9503 13.6437 36.2918 14.3784 36.9748 15.0838C37.7034 15.8087 38.6824 16.4356 39.9119 16.9646C41.1413 17.4936 42.5757 17.9051 44.215 18.199C45.8543 18.4929 47.5846 18.6398 49.406 18.6398C51.1364 18.6398 52.7757 18.5026 54.3239 18.2284C55.9176 17.9737 57.352 17.6014 58.627 17.1116C59.8109 16.6218 60.7671 16.0536 61.4957 15.407C62.2243 14.7605 62.6569 14.065 62.7935 13.3205L44.215 13.3205L44.215 12.6739C44.215 11.6747 44.6703 10.7147 45.5811 9.79382C46.5373 8.89257 47.8351 8.10887 49.4743 7.44273C51.1136 6.757 53.0033 6.228 55.1435 5.85575C57.2837 5.48349 59.5377 5.29736 61.9055 5.29736C64.2734 5.29736 66.5046 5.48349 68.5993 5.85575C70.7394 6.24759 72.6291 6.79618 74.2684 7.50151C75.9077 8.20684 77.1827 9.01012 78.0934 9.91138C79.0041 10.8322 79.4595 11.802 79.4595 12.8208C79.4595 14.545 78.2528 16.083 75.8394 17.4349C73.3805 18.7671 70.2158 19.6684 66.3452 20.1386L66.3452 18.2871C69.0774 17.8365 71.2403 17.141 72.8341 16.2005C74.4733 15.1817 75.293 14.065 75.293 12.8502C75.293 12.0665 74.9515 11.322 74.2684 10.6167C73.5854 9.93097 72.6291 9.3236 71.3997 8.79461C70.1702 8.26561 68.7131 7.84438 67.0283 7.5309C65.389 7.23701 63.6814 7.09007 61.9055 7.09007C58.627 7.09007 55.781 7.5211 53.3676 8.38317C50.8632 9.26483 49.315 10.3424 48.723 11.6159L67.0283 11.6159L67.0283 13.1735C67.0283 14.1531 66.5502 15.0838 65.5939 15.9654C64.6832 16.8471 63.4082 17.6308 61.7689 18.3165C60.1296 18.9827 58.2399 19.5019 56.0998 19.8741C53.9596 20.2464 51.7283 20.4325 49.406 20.4325C46.9927 20.4325 44.7159 20.2366 42.5757 19.8447C40.4811 19.4725 38.6141 18.9337 36.9748 18.2284C35.3356 17.523 34.0606 16.7099 33.1499 15.7891C32.2392 14.8683 31.7838 13.8984 31.7838 12.8796Z" fill="url(#paint0_linear_2061_874)"/>
<defs>
<linearGradient id="paint0_linear_2061_874" x1="55.6216" y1="5.29736" x2="55.6216" y2="20.4325" gradientUnits="userSpaceOnUse">
<stop stop-color="#49A9FF"/>
<stop offset="1" stop-color="#FC7CD9"/>
</linearGradient>
</defs>
</svg>
