<svg width="68" height="64" viewBox="0 0 68 64" fill="none" xmlns="http://www.w3.org/2000/svg">
<path d="M46.495 0L45.73 1.1475L33.66 18.53L23.035 21.675L22.9925 21.7175H22.95C21.6059 22.2222 20.5647 23.1041 19.7625 24.225L19.72 24.2675V24.31L10.54 38.4625L10.2 37.3575L1.275 40.035L0 40.46L0.3825 41.735L6.5025 62.2625L6.885 63.58L8.2025 63.1975L15.81 60.86L17.1275 60.4775L16.7025 59.2025L15.9375 56.61L26.605 54.23C29.8828 53.4863 32.8684 51.7172 34.9775 49.0025L35.4875 48.365L40.63 51.9775L41.735 52.785L42.5 51.6375L67.15 16.0225L67.915 14.9175L66.7675 14.11L47.6 0.8075L46.495 0ZM47.175 3.7825L64.1325 15.5975L54.4 29.665C55.6484 25.6859 53.7359 20.9206 49.6825 18.105C49.6719 18.0997 49.6931 18.0678 49.6825 18.0625C49.6719 18.0519 49.6506 18.0731 49.64 18.0625C47.2759 16.3944 44.4656 15.6984 41.905 15.9375C40.4388 16.0756 39.0628 16.5431 37.8675 17.2975L47.175 3.7825ZM52.87 11.8575C52.1263 11.8522 51.4091 12.2188 50.9575 12.8775C50.235 13.9294 50.5006 15.3425 51.5525 16.065C52.6044 16.7875 54.06 16.5219 54.7825 15.47C55.505 14.4181 55.2394 13.005 54.1875 12.2825C53.7944 12.0116 53.3162 11.8628 52.87 11.8575ZM42.245 18.615C44.1256 18.445 46.2241 18.9603 48.0675 20.2725L48.11 20.315C51.9616 22.9659 53.1091 27.4603 51.17 30.26H51.1275C50.15 31.7688 48.5191 32.5869 46.495 32.6825C46.5641 31.1259 46.0116 29.5747 44.795 28.4325C44.7844 28.4219 44.7631 28.4431 44.7525 28.4325C42.8984 26.5997 40.0084 26.2916 37.8675 27.71C36.5713 25.3778 36.4756 22.8438 37.74 21.0375C38.7069 19.6403 40.3644 18.785 42.245 18.615ZM31.2375 22.1L24.735 32.3425L24.0125 33.5325L25.2025 34.2125L29.5375 36.805L30.345 37.315L31.11 36.6775L37.995 31.11C38.3456 30.9984 38.6325 30.7541 38.8025 30.43L39.1425 30.175C40.2262 29.2719 41.8838 29.3463 42.8825 30.345V30.3875H42.925C44.0406 31.4075 44.1416 33.0013 43.18 34.255L32.8525 47.3025C31.1525 49.4859 28.7194 50.9788 26.01 51.595L15.1725 54.0175L11.3475 41.1825L11.7725 41.0125L12.24 40.8425L12.495 40.46L21.9725 25.84C22.5091 25.0856 23.0616 24.6234 23.8425 24.31C23.8744 24.2994 23.8956 24.2781 23.9275 24.2675L31.2375 22.1ZM34.34 22.27C33.8141 24.6341 34.3453 27.2 35.7 29.4525L30.1325 34L27.795 32.5975L34.34 22.27ZM51.68 33.6175L41.055 49.0025L37.145 46.24L45.305 35.955V35.9125H45.3475C45.475 35.7478 45.5812 35.5778 45.6875 35.4025C47.8975 35.4663 50.0278 34.8978 51.68 33.6175ZM8.3725 40.715L13.7275 58.6925L8.7125 60.2225L3.3575 42.2875L8.3725 40.715Z" fill="url(#paint0_linear_51_984)"/>
<defs>
<linearGradient id="paint0_linear_51_984" x1="33.9575" y1="0" x2="33.9575" y2="63.58" gradientUnits="userSpaceOnUse">
<stop stop-color="#FFC619"/>
<stop offset="0.520833" stop-color="#F69020"/>
<stop offset="1" stop-color="#EA422A"/>
</linearGradient>
</defs>
</svg>
