<svg width="62" height="60" viewBox="0 0 62 60" fill="none" xmlns="http://www.w3.org/2000/svg">
<path d="M37.4 0L36.4384 0.961563L32.0769 5.32312L37.4 10.6462L42.7231 5.32312L37.4 0ZM20.4 3.28312C20.0393 3.28316 19.6934 3.42646 19.4384 3.6815C19.1833 3.93654 19.04 4.28244 19.04 4.64313V11.4431C19.04 11.8038 19.1833 12.1497 19.4384 12.4047C19.6934 12.6598 20.0393 12.8031 20.4 12.8031H21.76C23.3858 12.8031 23.7394 13.292 24.0869 14.0728C24.4344 14.8536 24.48 16.027 24.48 16.8831C24.48 17.9934 24.3454 19.1608 24.1559 20.2831C22.9604 19.862 21.8133 19.6106 20.7506 19.6031C19.5497 19.5946 18.3555 19.9317 17.502 20.7852C17.138 21.1492 16.8939 21.5841 16.7052 22.0442L16.6812 22.0363L1.73453 59.925L40.9753 46.4897L40.9673 46.4658C41.4711 46.2757 41.9445 46.0143 42.338 45.6211C43.3552 44.6038 43.631 43.1374 43.4802 41.6712C43.385 40.7469 43.1173 39.7706 42.7311 38.7573C43.8049 38.6923 44.9468 38.6431 46.24 38.6431C48.1788 38.6431 50.0131 38.8776 51.2045 39.2913C51.8002 39.4981 52.22 39.7514 52.4238 39.9447C52.6275 40.138 52.6389 40.194 52.6389 40.3431V41.3631C52.6389 41.7238 52.7822 42.0697 53.0373 42.3247C53.2923 42.5798 53.6382 42.7231 53.9989 42.7231H59.84C60.022 42.7232 60.2022 42.6867 60.3698 42.6159C60.5374 42.5451 60.6892 42.4413 60.816 42.3108C60.9428 42.1802 61.0421 42.0256 61.1081 41.856C61.1741 41.6863 61.2053 41.5052 61.2 41.3233C61.2 41.3233 61.16 39.6473 61.1602 39.6286C61.1602 39.6277 61.1602 39.6268 61.1602 39.6259C61.1851 36.5386 59.2404 34.1458 56.8411 32.6745C54.4418 31.2033 51.5299 30.4831 48.9308 30.4831C44.6293 30.4831 41.4296 31.599 39.2886 32.7038C38.6135 31.7869 37.8695 30.8629 37.0573 29.9439C37.5424 29.7891 38.0347 29.645 38.5103 29.5163C39.4685 29.2568 40.3742 29.0442 41.0789 28.8867C41.7836 28.7292 42.1727 28.6616 42.5266 28.5627C43.6244 28.255 45.1231 27.8788 46.4658 26.9822C47.8084 26.0855 48.96 24.4728 48.96 22.3231C48.96 21.7347 48.6746 21.4072 48.4872 20.9631H48.96C51.8674 20.9631 54.4 18.6155 54.4 15.5231V13.6531C54.4 13.6531 54.4102 13.4678 54.5381 13.26C54.666 13.0522 54.7683 12.8031 55.76 12.8031H57.12C57.4807 12.8031 57.8266 12.6598 58.0816 12.4047C58.3367 12.1497 58.48 11.8038 58.48 11.4431V6.00578C58.48 5.6451 58.3367 5.2992 58.0816 5.04416C57.8266 4.78911 57.4807 4.64582 57.12 4.64578H54.9153C51.3006 4.64274 49.0679 6.31597 47.8736 7.90766C46.9881 9.08733 46.7153 10.5452 46.5056 11.7964C46.4137 12.3452 46.4321 12.4044 46.3914 12.8031H46.24C43.8978 12.8031 42.0625 13.6522 40.9461 14.9919C39.8297 16.3316 39.44 18.0165 39.44 19.6031V21.4492C37.211 22.1841 34.6582 23.3774 32.462 25.4548C31.1675 24.3539 29.8808 23.3702 28.6184 22.5489C30.0123 20.091 31.28 16.7748 31.28 12.8031C31.28 10.4609 30.5037 8.09579 28.8787 6.28469C27.2538 4.47359 24.7638 3.28312 21.6591 3.28312H21.6564H21.6378H20.4ZM37.4 3.84625L38.8769 5.32312L37.4 6.8L35.9231 5.32312L37.4 3.84625ZM8.84 5.44L7.87844 6.40156L3.51688 10.7631L8.84 16.0862L14.1631 10.7631L8.84 5.44ZM21.76 6.02172C24.132 6.04886 25.7524 6.87303 26.8547 8.10156C27.9752 9.35046 28.56 11.0653 28.56 12.8031C28.56 15.6347 27.7354 17.9449 26.775 19.9352C26.9276 18.8928 27.2 17.9711 27.2 16.8831C27.2 16.027 27.2456 14.479 26.5731 12.9678C25.9006 11.4567 24.2142 10.0831 21.76 10.0831V6.02172ZM54.9127 7.36578C54.9135 7.36578 54.9144 7.36578 54.9153 7.36578H55.76V10.0831C54.0317 10.0831 52.774 10.9391 52.2219 11.8362C51.6698 12.7334 51.68 13.6531 51.68 13.6531V15.5231C51.68 17.1907 50.4726 18.2431 48.96 18.2431H46.24C45.9922 18.2431 45.7491 18.3109 45.537 18.4389C45.3249 18.567 45.1518 18.7506 45.0365 18.9699C44.9211 19.1892 44.8678 19.4358 44.8823 19.6832C44.8969 19.9305 44.9788 20.1692 45.1191 20.3734C45.1195 20.3741 45.2251 20.5078 45.2333 20.5169C45.2414 20.526 45.2467 20.5325 45.2519 20.5381C45.2622 20.5494 45.2741 20.5612 45.2891 20.578C45.319 20.6115 45.362 20.6616 45.4139 20.7241C45.5177 20.8491 45.6555 21.0265 45.7884 21.2288C46.0543 21.6333 46.24 22.1409 46.24 22.3231C46.24 23.6251 45.7785 24.1687 44.9544 24.7191C44.1302 25.2695 42.9083 25.6311 41.7934 25.9436C41.8386 25.9309 41.211 26.0706 40.4839 26.2331C39.7569 26.3956 38.8158 26.6172 37.8011 26.8919C36.2431 27.3137 34.6923 27.9908 33.2536 28.7114C35.5312 25.8775 38.6583 24.3362 41.1666 23.6327C41.4523 23.5526 41.7041 23.3814 41.8835 23.1449C42.0628 22.9085 42.1599 22.6199 42.16 22.3231V19.6031C42.16 18.4698 42.4503 17.4347 43.0339 16.7344C43.6175 16.0341 44.5022 15.5231 46.24 15.5231H47.6C47.9481 15.5229 48.2829 15.3892 48.5354 15.1495C48.788 14.9099 48.939 14.5825 48.9573 14.2348C48.9573 14.2348 49.0068 13.3295 49.1884 12.2453C49.3701 11.1611 49.7773 9.89708 50.0464 9.53859C50.0473 9.53859 50.0482 9.53859 50.0491 9.53859C50.895 8.4107 52.0602 7.36338 54.9127 7.36578ZM8.84 9.28625L10.3169 10.7631L8.84 12.24L7.36312 10.7631L8.84 9.28625ZM56.44 20.9631L53.04 24.3631L56.44 27.7631L59.8373 24.3631L56.44 20.9631ZM3.4 22.3231L0 25.7231L3.4 29.1231L6.79734 25.7231L3.4 22.3231ZM20.7294 22.3231C21.4423 22.3282 22.4272 22.5887 23.5583 23.0456C23.1694 24.5305 22.7947 25.6254 22.6791 25.9755C22.5858 26.2583 22.588 26.5639 22.6852 26.8454C22.7824 27.1269 22.9693 27.3687 23.2173 27.5337C23.4652 27.6987 23.7605 27.7778 24.0577 27.7588C24.3549 27.7397 24.6376 27.6237 24.8625 27.4284C25.0532 27.2623 25.3873 26.9509 25.9941 26.2597C26.3182 25.8905 26.6963 25.4233 27.0938 24.8891C28.2518 25.6158 29.4604 26.4968 30.6691 27.5055C30.4931 27.746 30.3092 27.9727 30.1431 28.2306L27.4178 32.4673C27.249 32.7317 27.1767 33.0462 27.2132 33.3577C27.2497 33.6692 27.3927 33.9585 27.6181 34.1766C27.8434 34.3948 28.1372 34.5284 28.4497 34.5547C28.7622 34.5811 29.0743 34.4987 29.333 34.3214L33.4236 31.4978C33.6636 31.3321 33.9776 31.1607 34.332 30.9905C35.3075 32.0411 36.1961 33.1002 36.9723 34.1408C36.5376 34.475 36.1978 34.7703 36.133 34.8341C36.1321 34.8349 36.1312 34.8358 36.1303 34.8367L33.0438 37.8861C32.8216 38.1057 32.6818 38.3952 32.6478 38.7057C32.6139 39.0163 32.688 39.3291 32.8575 39.5915C33.027 39.8539 33.2818 40.05 33.5788 40.1467C33.8759 40.2434 34.1972 40.2349 34.4888 40.1227C34.4888 40.1226 36.274 39.4449 39.8942 39.007C40.3932 40.1459 40.6954 41.1658 40.7761 41.9502C40.8765 42.9255 40.6828 43.43 40.4148 43.698C40.3101 43.8026 40.16 43.8901 39.9712 43.9583L39.8331 44.0061C39.5918 44.0691 39.2867 44.0993 38.8822 44.0752C38.0334 44.0246 36.8654 43.706 35.5433 43.1056C32.8991 41.9049 29.6469 39.6085 26.5811 36.542C23.5152 33.4755 21.2185 30.2241 20.0175 27.5798C19.417 26.2577 19.0986 25.0869 19.048 24.2383C19.0228 23.8165 19.0562 23.4977 19.125 23.2528C19.133 23.2243 19.1452 23.205 19.1542 23.1784C19.2233 22.9742 19.315 22.8184 19.4252 22.7083C19.6488 22.4846 20.0154 22.3181 20.7294 22.3231ZM17.2497 28.0075C17.3442 28.2395 17.4318 28.4697 17.5392 28.7061C18.9284 31.7647 21.3971 35.2036 24.658 38.4652C27.9189 41.7268 31.3584 44.1949 34.417 45.5839C34.5403 45.6399 34.6589 45.6828 34.7809 45.7353L6.42547 55.4439L17.2497 28.0075ZM48.9308 33.2031C51.0019 33.2031 53.5421 33.8419 55.42 34.9934C57.2979 36.145 58.456 37.6384 58.4402 39.602C58.439 39.7067 58.4451 39.8372 58.4481 40.0031H55.2075C55.1023 39.2292 54.8221 38.4697 54.2964 37.9711C53.6829 37.3892 52.9284 37.0122 52.0944 36.7227C50.4264 36.1435 48.3812 35.9231 46.24 35.9231C42.7399 35.9231 40.3452 36.2818 38.2686 36.6217C38.5806 36.3238 41.9346 33.2031 48.9308 33.2031ZM46.92 48.96L45.9584 49.9216L41.5969 54.2831L46.92 59.6063L52.2431 54.2831L46.92 48.96ZM46.92 52.8063L48.3969 54.2831L46.92 55.76L45.4431 54.2831L46.92 52.8063Z" fill="url(#paint0_linear_51_990)"/>
<defs>
<linearGradient id="paint0_linear_51_990" x1="30.6003" y1="0" x2="30.6003" y2="59.925" gradientUnits="userSpaceOnUse">
<stop stop-color="#FFC619"/>
<stop offset="0.520833" stop-color="#F69020"/>
<stop offset="1" stop-color="#EA422A"/>
</linearGradient>
</defs>
</svg>
