<svg width="62" height="62" viewBox="0 0 62 62" fill="none" xmlns="http://www.w3.org/2000/svg">
<path d="M54.2203 3.27285e-05C52.5872 3.27285e-05 50.954 0.617688 49.7187 1.853L47.2847 4.28698C46.8136 4.75808 46.7613 5.50659 47.1643 6.0405L44.3168 8.888C38.5119 14.6929 33.6701 16.4517 28.8074 18.0743C23.9499 19.697 18.9877 21.1783 13.8894 26.2818L1.59387 38.5721C-0.531289 40.6973 -0.531289 44.1834 1.59387 46.3138L8.4509 53.1708L15.3079 60.0226C17.4383 62.153 20.9244 62.153 23.0496 60.0226L35.3399 47.7323C40.4434 42.634 41.9247 37.6718 43.5421 32.8143C45.1648 27.9516 46.9236 23.1098 52.7337 17.3049L55.5812 14.4574C56.1151 14.8604 56.8636 14.8081 57.3347 14.337L59.7687 11.903C62.2446 9.42714 62.2446 5.37573 59.7687 2.89988L58.7218 1.853C57.4813 0.617688 55.8534 -0.00520265 54.2203 3.27285e-05ZM54.2203 2.6591C55.1625 2.66433 56.1046 3.0255 56.8322 3.74784L57.8739 4.79472C59.3238 6.24464 59.3238 8.55824 57.8739 10.0082L56.3978 11.4843L53.2676 8.3541C53.231 8.31745 53.1891 8.28081 53.1472 8.24941L50.1322 5.23441L51.6083 3.74784C52.3359 3.0255 53.2781 2.6591 54.2203 2.6591ZM30.8121 2.66956C30.0741 2.66956 29.4721 3.27152 29.4721 4.00956C29.4721 4.74761 30.0741 5.34956 30.8121 5.34956C31.5502 5.34956 32.1521 4.74761 32.1521 4.00956C32.1521 3.27152 31.5502 2.66956 30.8121 2.66956ZM38.8521 6.68956C38.1141 6.68956 37.5121 7.29152 37.5121 8.02956C37.5121 8.76761 38.1141 9.36956 38.8521 9.36956C39.5902 9.36956 40.1922 8.76761 40.1922 8.02956C40.1922 7.29152 39.5902 6.68956 38.8521 6.68956ZM49.0487 7.94581L53.6759 12.573L50.8336 15.41C48.8236 17.4253 47.2847 19.3567 46.018 21.2359L40.3858 15.6037C42.265 14.337 44.1964 12.7981 46.2117 10.7881L49.0487 7.94581ZM38.0513 17.0536L44.5681 23.5704C43.4218 25.6014 42.5843 27.5538 41.8933 29.4277L34.6228 26.9989L32.194 19.7284C34.0679 19.0375 36.0204 18.2 38.0513 17.0536ZM29.6658 20.613L32.2935 28.4855C32.4243 28.8833 32.7384 29.1974 33.1362 29.3282L41.0087 31.9559C41.0035 31.9559 41.0035 31.9611 41.0035 31.9611C39.3651 36.8814 38.1298 41.1579 33.4503 45.8427L21.16 58.133C20.0555 59.2322 18.3072 59.2322 17.2028 58.133L3.48871 44.4189C2.38949 43.3145 2.38949 41.5662 3.48871 40.4618L15.779 28.1714C20.4638 23.4919 24.7403 22.2566 29.6606 20.6182C29.6606 20.6182 29.6658 20.6182 29.6658 20.613ZM56.2721 21.4296C55.5341 21.4296 54.9321 22.0315 54.9321 22.7696C54.9321 23.5076 55.5341 24.1096 56.2721 24.1096C57.0102 24.1096 57.6121 23.5076 57.6121 22.7696C57.6121 22.0315 57.0102 21.4296 56.2721 21.4296ZM60.2921 26.7896C59.5541 26.7896 58.9521 27.3915 58.9521 28.1296C58.9521 28.8676 59.5541 29.4696 60.2921 29.4696C61.0302 29.4696 61.6321 28.8676 61.6321 28.1296C61.6321 27.3915 61.0302 26.7896 60.2921 26.7896ZM53.5922 29.4696C52.8541 29.4696 52.2522 30.0715 52.2522 30.8096C52.2522 31.5476 52.8541 32.1496 53.5922 32.1496C54.3302 32.1496 54.9321 31.5476 54.9321 30.8096C54.9321 30.0715 54.3302 29.4696 53.5922 29.4696ZM28.1321 30.8096C26.6508 30.8096 25.4521 32.0082 25.4521 33.4896C25.4521 34.9709 26.6508 36.1696 28.1321 36.1696C29.6135 36.1696 30.8121 34.9709 30.8121 33.4896C30.8121 32.0082 29.6135 30.8096 28.1321 30.8096ZM17.8204 31.5685C17.4697 31.5738 17.14 31.7151 16.8887 31.9611L8.4509 40.4042C7.92746 40.9276 7.92746 41.7808 8.4509 42.3042L19.3175 53.1708C19.8409 53.689 20.6941 53.689 21.2175 53.1708L29.6554 44.7278C30.1788 44.2043 30.1788 43.3564 29.6554 42.8329L18.7888 31.9611C18.5323 31.7099 18.1816 31.5685 17.8204 31.5685ZM17.8361 34.8086L26.8131 43.7803L20.2649 50.3233L11.2932 41.3568L17.8361 34.8086Z" fill="url(#paint0_linear_51_978)"/>
<defs>
<linearGradient id="paint0_linear_51_978" x1="30.8161" y1="0" x2="30.8161" y2="61.6204" gradientUnits="userSpaceOnUse">
<stop stop-color="#FFC619"/>
<stop offset="0.520833" stop-color="#F69020"/>
<stop offset="1" stop-color="#EA422A"/>
</linearGradient>
</defs>
</svg>
