<svg width="16" height="16" viewBox="0 0 16 16" fill="none" xmlns="http://www.w3.org/2000/svg">
<path d="M7.67965 0.956991C4.09762 0.855429 1.10543 3.69137 1.00387 7.2734C0.902304 10.8554 3.73824 13.8515 7.32027 13.9531C10.9023 14.0507 13.8984 11.2187 14 7.63277C14.0195 6.88277 13.9062 6.16012 13.6875 5.48433L12.8632 6.26168C12.9609 6.69527 13.0117 7.14449 13 7.60933C12.914 10.6406 10.3789 13.0351 7.34762 12.9531C4.31637 12.8671 1.91793 10.332 1.99996 7.30074C2.0859 4.26949 4.62105 1.87105 7.6523 1.95308C8.64449 1.98433 9.56637 2.2773 10.3593 2.76558L11.1093 2.05465C10.125 1.3984 8.95308 0.992148 7.67965 0.956991ZM12.5 2.79293L6.49996 8.79293L4.85152 7.1484L4.49996 6.79293L3.79293 7.49996L4.1484 7.85152L6.49996 10.207L13.207 3.49996L12.5 2.79293Z" fill="#F69020"/>
</svg>
