<svg xmlns="http://www.w3.org/2000/svg">
  <symbol id="burger" width="29" height="12" viewBox="0 0 29 12" fill="none">
    <rect width="29" height="3" rx="1.5" fill="#F69020" />
    <rect y="9" width="29" height="3" rx="1.5" fill="#F69020" />
  </symbol>
  <symbol id="cross" width="22" height="22" viewBox="0 0 22 22" fill="none">
    <path
      d="M0.439574 0.43934C1.02536 -0.146447 1.97511 -0.146447 2.56089 0.43934L20.9457 18.8241C21.5315 19.4099 21.5315 20.3597 20.9457 20.9454C20.3599 21.5312 19.4101 21.5312 18.8243 20.9454L0.439573 2.56066C-0.146213 1.97487 -0.146213 1.02513 0.439574 0.43934Z"
      fill="#F69020" />
    <path
      d="M20.9454 0.43934C20.3596 -0.146447 19.4099 -0.146447 18.8241 0.43934L0.43934 18.8241C-0.146447 19.4099 -0.146447 20.3597 0.43934 20.9454C1.02513 21.5312 1.97487 21.5312 2.56066 20.9454L20.9454 2.56066C21.5312 1.97487 21.5312 1.02513 20.9454 0.43934Z"
      fill="#F69020" />
  </symbol>
</svg>