<svg width="26" height="27" viewBox="0 0 26 27" fill="none" xmlns="http://www.w3.org/2000/svg">
<path d="M5.6 0C5.30756 0 5.00942 0.107144 4.79828 0.318281C4.58714 0.529418 4.48 0.827556 4.48 1.12V2.24H1.12C0.827555 2.24 0.529418 2.34714 0.318281 2.55828C0.107144 2.76942 0 3.06756 0 3.36V7.84V25.76C0 26.0524 0.107144 26.3506 0.318281 26.5617C0.529418 26.7729 0.827555 26.88 1.12 26.88H24.64C24.9324 26.88 25.2306 26.7729 25.4417 26.5617C25.6529 26.3506 25.76 26.0524 25.76 25.76V7.84V3.36C25.76 3.06756 25.6529 2.76942 25.4417 2.55828C25.2306 2.34714 24.9324 2.24 24.64 2.24H21.28V1.12C21.28 0.827556 21.1729 0.529418 20.9617 0.318281C20.7506 0.107144 20.4524 0 20.16 0H19.04C18.7476 0 18.4494 0.107144 18.2383 0.318281C18.0271 0.529418 17.92 0.827556 17.92 1.12V2.24H7.84V1.12C7.84 0.827556 7.73285 0.529418 7.52172 0.318281C7.31058 0.107144 7.01244 0 6.72 0H5.6ZM5.6 1.12H6.72V4.48H5.6V1.12ZM19.04 1.12H20.16V2.70594C20.15 2.76641 20.15 2.82812 20.16 2.88859V4.48H19.04V1.12ZM1.12 3.36H4.48V4.48C4.48 4.77244 4.58714 5.07058 4.79828 5.28172C5.00942 5.49286 5.30756 5.6 5.6 5.6H6.72C7.01244 5.6 7.31058 5.49286 7.52172 5.28172C7.73285 5.07058 7.84 4.77244 7.84 4.48V3.36H17.92V4.48C17.92 4.77244 18.0271 5.07058 18.2383 5.28172C18.4494 5.49286 18.7476 5.6 19.04 5.6H20.16C20.4524 5.6 20.7506 5.49286 20.9617 5.28172C21.1729 5.07058 21.28 4.77244 21.28 4.48V3.36H24.64V7.28H1.12V3.36ZM1.12 8.4H24.64V25.76H1.12V8.4ZM8.95125 10.6323C8.92449 10.633 8.8978 10.6355 8.87141 10.64H5.04C4.89148 10.64 4.74905 10.699 4.64404 10.804C4.53902 10.9091 4.48001 11.0515 4.48 11.2V15.0259C4.47 15.0864 4.47 15.1481 4.48 15.2086V18.9459C4.47 19.0064 4.47 19.0681 4.48 19.1286V22.96C4.48001 23.1085 4.53902 23.2509 4.64404 23.356C4.74905 23.461 4.89148 23.52 5.04 23.52H8.86594C8.92641 23.53 8.98812 23.53 9.04859 23.52H12.7859C12.8464 23.53 12.9081 23.53 12.9686 23.52H15.68H16.7059C16.7664 23.53 16.8281 23.53 16.8886 23.52H20.72C20.8685 23.52 21.0109 23.461 21.116 23.356C21.221 23.2509 21.28 23.1085 21.28 22.96V19.1341C21.29 19.0736 21.29 19.0119 21.28 18.9514V15.2141C21.29 15.1536 21.29 15.0919 21.28 15.0314V11.2C21.28 11.0515 21.221 10.9091 21.116 10.804C21.0109 10.699 20.8685 10.64 20.72 10.64H16.8941C16.8336 10.63 16.7719 10.63 16.7114 10.64H12.9741C12.9136 10.63 12.8519 10.63 12.7914 10.64H9.05406C9.0201 10.6343 8.98568 10.6317 8.95125 10.6323ZM5.6 11.76H8.4V14.56H5.6V11.76ZM9.52 11.76H12.32V14.56H9.52V11.76ZM13.44 11.76H16.24V14.56H13.44V11.76ZM17.36 11.76H20.16V14.56H17.36V11.76ZM5.6 15.68H8.4V18.48H5.6V15.68ZM9.52 15.68H12.32V18.48H9.52V15.68ZM13.44 15.68H16.24V18.48H13.44V15.68ZM17.36 15.68H20.16V18.48H17.36V15.68ZM5.6 19.6H8.4V22.4H5.6V19.6ZM9.52 19.6H12.32V22.4H9.52V19.6ZM13.44 19.6H16.24V22.4H15.68H13.44V19.6ZM17.36 19.6H20.16V22.4H17.36V19.6Z" fill="#606571"/>
</svg>
