<svg width="16" height="16" viewBox="0 0 16 16" fill="none" xmlns="http://www.w3.org/2000/svg">
<path d="M7.60056e-05 7.60056e-05V4.94008C-0.00134827 5.04078 0.0172575 5.14077 0.054812 5.23423C0.0923664 5.32768 0.148121 5.41274 0.218834 5.48447C0.289548 5.55619 0.373811 5.61314 0.466727 5.65201C0.559642 5.69088 0.659357 5.7109 0.760076 5.7109C0.860795 5.7109 0.96051 5.69088 1.05343 5.65201C1.14634 5.61314 1.2306 5.55619 1.30132 5.48447C1.37203 5.41274 1.42779 5.32768 1.46534 5.23423C1.50289 5.14077 1.5215 5.04078 1.52008 4.94008V2.59476L5.73273 6.80742C5.80276 6.88036 5.88664 6.93859 5.97946 6.97871C6.07228 7.01883 6.17217 7.04002 6.27328 7.04105C6.37439 7.04208 6.47469 7.02292 6.56831 6.9847C6.66192 6.94648 6.74697 6.88997 6.81847 6.81847C6.88997 6.74697 6.94648 6.66192 6.9847 6.56831C7.02292 6.47469 7.04208 6.37439 7.04105 6.27328C7.04002 6.17217 7.01883 6.07228 6.97871 5.97946C6.93859 5.88664 6.88036 5.80276 6.80742 5.73273L2.59476 1.52008H4.94008C5.04078 1.5215 5.14077 1.50289 5.23423 1.46534C5.32768 1.42779 5.41274 1.37203 5.48447 1.30132C5.55619 1.2306 5.61314 1.14634 5.65201 1.05343C5.69088 0.96051 5.7109 0.860795 5.7109 0.760076C5.7109 0.659357 5.69088 0.559642 5.65201 0.466727C5.61314 0.373811 5.55619 0.289548 5.48447 0.218834C5.41274 0.148121 5.32768 0.0923664 5.23423 0.054812C5.14077 0.0172575 5.04078 -0.00134827 4.94008 7.60056e-05H7.60056e-05ZM10.2601 7.60056e-05C10.1594 -0.00134827 10.0594 0.0172575 9.96592 0.054812C9.87247 0.0923664 9.78741 0.148121 9.71569 0.218834C9.64396 0.289548 9.58701 0.373811 9.54814 0.466727C9.50927 0.559642 9.48925 0.659357 9.48925 0.760076C9.48925 0.860795 9.50927 0.96051 9.54814 1.05343C9.58701 1.14634 9.64396 1.2306 9.71569 1.30132C9.78741 1.37203 9.87247 1.42779 9.96592 1.46534C10.0594 1.50289 10.1594 1.5215 10.2601 1.52008H12.5735L8.3905 5.73496C8.31791 5.8053 8.26007 5.88942 8.22038 5.98239C8.18069 6.07536 8.15994 6.17532 8.15936 6.2764C8.15877 6.37749 8.17835 6.47768 8.21696 6.5711C8.25557 6.66453 8.31242 6.74931 8.3842 6.8205C8.45597 6.89168 8.54123 6.94783 8.63497 6.98566C8.72871 7.02349 8.82906 7.04225 8.93014 7.04082C9.03121 7.0394 9.13099 7.01782 9.22363 6.97736C9.31627 6.9369 9.39991 6.87837 9.46965 6.80519L13.6801 2.56285V4.94008C13.6786 5.04078 13.6973 5.14077 13.7348 5.23423C13.7724 5.32768 13.8281 5.41274 13.8988 5.48447C13.9695 5.55619 14.0538 5.61314 14.1467 5.65201C14.2396 5.69088 14.3394 5.7109 14.4401 5.7109C14.5408 5.7109 14.6405 5.69088 14.7334 5.65201C14.8263 5.61314 14.9106 5.55619 14.9813 5.48447C15.052 5.41274 15.1078 5.32768 15.1453 5.23423C15.1829 5.14077 15.2015 5.04078 15.2001 4.94008V7.60056e-05H10.2601ZM6.2582 8.16265C6.06081 8.16776 5.87316 8.24947 5.73496 8.3905L1.52008 12.5735V10.2601C1.5215 10.1594 1.50289 10.0594 1.46534 9.96592C1.42779 9.87247 1.37203 9.78741 1.30132 9.71569C1.2306 9.64396 1.14634 9.58701 1.05343 9.54814C0.96051 9.50927 0.860795 9.48925 0.760076 9.48925C0.659357 9.48925 0.559642 9.50927 0.466727 9.54814C0.373811 9.58701 0.289548 9.64396 0.218834 9.71569C0.148121 9.78741 0.0923664 9.87247 0.054812 9.96592C0.0172575 10.0594 -0.00134827 10.1594 7.60056e-05 10.2601V15.2001H4.94008C5.04078 15.2015 5.14077 15.1829 5.23423 15.1453C5.32768 15.1078 5.41274 15.052 5.48447 14.9813C5.55619 14.9106 5.61314 14.8263 5.65201 14.7334C5.69088 14.6405 5.7109 14.5408 5.7109 14.4401C5.7109 14.3394 5.69088 14.2396 5.65201 14.1467C5.61314 14.0538 5.55619 13.9695 5.48447 13.8988C5.41274 13.8281 5.32768 13.7724 5.23423 13.7348C5.14077 13.6973 5.04078 13.6786 4.94008 13.6801H2.56285L6.80519 9.46965C6.91545 9.36333 6.99102 9.22619 7.022 9.07619C7.05297 8.92619 7.03791 8.77033 6.97877 8.62904C6.91964 8.48775 6.8192 8.36762 6.69062 8.2844C6.56204 8.20117 6.41132 8.15874 6.2582 8.16265ZM8.92191 8.16265C8.77079 8.16284 8.62315 8.20807 8.49785 8.29258C8.37256 8.37708 8.2753 8.49702 8.2185 8.63706C8.1617 8.77711 8.14794 8.93091 8.17898 9.07881C8.21001 9.22672 8.28443 9.36201 8.39273 9.46742L12.6054 13.6801H10.2601C10.1594 13.6786 10.0594 13.6973 9.96592 13.7348C9.87247 13.7724 9.78741 13.8281 9.71569 13.8988C9.64396 13.9695 9.58701 14.0538 9.54814 14.1467C9.50927 14.2396 9.48925 14.3394 9.48925 14.4401C9.48925 14.5408 9.50927 14.6405 9.54814 14.7334C9.58701 14.8263 9.64396 14.9106 9.71569 14.9813C9.78741 15.052 9.87247 15.1078 9.96592 15.1453C10.0594 15.1829 10.1594 15.2015 10.2601 15.2001H15.2001V10.2601C15.2015 10.1594 15.1829 10.0594 15.1453 9.96592C15.1078 9.87247 15.052 9.78741 14.9813 9.71569C14.9106 9.64396 14.8263 9.58701 14.7334 9.54814C14.6405 9.50927 14.5408 9.48925 14.4401 9.48925C14.3394 9.48925 14.2396 9.50927 14.1467 9.54814C14.0538 9.58701 13.9695 9.64396 13.8988 9.71569C13.8281 9.78741 13.7724 9.87247 13.7348 9.96592C13.6973 10.0594 13.6786 10.1594 13.6801 10.2601V12.6054L9.46742 8.39273C9.39651 8.31984 9.31169 8.26192 9.21799 8.2224C9.12429 8.18288 9.02361 8.16256 8.92191 8.16265Z" fill="white"/>
</svg>
