<svg width="55" height="68" viewBox="0 0 55 68" fill="none" xmlns="http://www.w3.org/2000/svg">
<path d="M39.2481 0C30.8262 0 23.9247 6.79766 23.7606 15.1812C22.9512 16.4555 12.2161 33.3758 3.76685 41.825L3.8106 41.8687C3.69575 41.9562 3.2856 42.1969 3.0231 42.875C2.72231 43.6516 2.96294 44.9586 3.8106 45.8062L5.77935 47.775L3.41685 50.1375C0.999658 52.5547 -0.0776865 55.2945 0.00434515 57.8812C0.0863767 60.468 1.24575 62.8414 3.0231 64.5312C6.57231 67.9109 12.7739 68.693 17.3731 64.0938L36.5793 44.8875C40.3145 41.1523 44.3997 41.9234 46.9043 44.3625C48.1567 45.582 48.9661 47.2336 49.0043 49C49.0426 50.7664 48.37 52.6969 46.4231 54.6437L37.5418 63.525C36.9622 64.1047 36.9622 65.0453 37.5418 65.625C38.1215 66.2047 39.0622 66.2047 39.6418 65.625L48.4793 56.7437C50.8965 54.3266 51.9903 51.5539 51.9356 48.9562C51.8809 46.3586 50.7215 43.9742 48.9606 42.2625C47.1997 40.5508 44.7661 39.4953 42.1793 39.4625C39.5926 39.4297 36.8801 40.4305 34.5231 42.7875L15.3168 61.9937C11.7293 65.5812 7.61685 64.8047 5.07935 62.3875C3.8106 61.1789 2.99028 59.5328 2.9356 57.7938C2.88091 56.0547 3.52622 54.1406 5.47309 52.1937L5.60435 52.1063L7.8356 49.875L8.8856 50.8812C9.72231 51.718 10.8762 52.0352 11.6856 51.8C12.3911 51.5977 12.6372 51.1328 12.7356 51.0125L12.8231 51.1C21.059 42.8586 38.2747 31.7953 39.5543 30.975C47.9434 30.8109 54.7356 23.9148 54.7356 15.4875C54.7356 6.96172 47.7684 0 39.2481 0ZM39.2481 2.975C46.177 2.975 51.7606 8.55312 51.7606 15.4875C51.7606 18.2602 50.8692 20.8141 49.3543 22.8813L31.8543 5.38125C33.9215 3.86641 36.4754 2.975 39.2481 2.975ZM29.7106 7.39375L47.3856 25.025C45.2036 26.8898 42.3598 28 39.2481 28C32.3137 28 26.7356 22.4273 26.7356 15.4875C26.7356 12.3867 27.8567 9.57578 29.7106 7.39375ZM24.3293 19.5562C25.7786 24.8445 29.9676 29.0336 35.2668 30.45C29.5629 34.2125 17.6793 42.2898 10.9418 49C10.92 48.9727 10.9254 48.9836 10.8543 48.9125L5.77935 43.7938C12.6262 36.9305 20.6161 25.2383 24.3293 19.5562ZM24.1106 28.8312C23.6895 28.8312 23.2465 28.9953 22.9293 29.3125L19.1668 33.1187C18.527 33.7586 18.527 34.7977 19.1668 35.4375L19.2981 35.5687C19.9325 36.2086 20.977 36.2086 21.6168 35.5687L25.4231 31.7625C26.0629 31.1281 26.0575 30.0836 25.4231 29.4438L25.2481 29.3125C24.9309 28.9953 24.5317 28.8312 24.1106 28.8312Z" fill="url(#paint0_linear_51_972)"/>
<defs>
<linearGradient id="paint0_linear_51_972" x1="27.3678" y1="0" x2="27.3678" y2="67.306" gradientUnits="userSpaceOnUse">
<stop stop-color="#FFC619"/>
<stop offset="0.520833" stop-color="#F69020"/>
<stop offset="1" stop-color="#EA422A"/>
</linearGradient>
</defs>
</svg>
