<svg width="21" height="16" viewBox="0 0 21 16" fill="none" xmlns="http://www.w3.org/2000/svg">
<path d="M11.3006 0C7.57641 0 6.19336 2.87766 7.25812 5.31562C7.12523 5.40422 6.91195 5.68148 6.95625 6.16875C7.04484 7.05469 7.44352 7.26633 7.665 7.31062C7.75359 8.15227 8.2868 9.13336 8.59688 9.26625C8.59688 9.84211 8.58867 10.3245 8.54437 10.9462C7.86516 12.7296 3.52406 12.3162 2.96625 15.5137C2.94164 15.6532 3.08602 15.96 3.37312 15.96H17.64C18.0666 15.96 18.0584 15.645 18.0337 15.5006C17.4661 12.3162 13.1348 12.728 12.4556 10.9462C12.4113 10.2802 12.4031 9.84211 12.4031 9.26625C12.7132 9.13336 13.207 8.10797 13.2956 7.31062C13.5171 7.31062 13.8715 7.0432 14.0044 6.15562C14.0487 5.66836 13.8666 5.35992 13.6894 5.31562C14.3981 4.42969 14.2702 0.800625 11.655 0.800625L11.3006 0ZM6.36562 2.1C3.5618 2.14758 2.33297 4.37883 3.17625 6.28687C3.08602 6.33117 2.90883 6.56578 2.95312 6.96937C3.04336 7.68797 3.31078 7.86187 3.49125 7.86187C3.57984 8.53453 3.97687 9.28922 4.2 9.42375C4.2 9.87164 4.20492 9.85851 4.16062 10.395C3.79641 11.5434 0 11.4581 0 14.28C0 14.28 0 14.7 0.42 14.7H2.32312C2.96461 12.8855 4.70859 12.1866 6.02437 11.6681C6.74953 11.3827 7.49273 11.0939 7.7175 10.7362C7.74211 10.3458 7.75523 10.0144 7.75687 9.64687C7.3582 9.19078 7.06125 8.48039 6.91687 7.875C6.57562 7.62234 6.20648 7.13672 6.11625 6.23438C6.07687 5.80617 6.16711 5.45016 6.31312 5.17125C5.98008 4.13602 6.00141 3.05484 6.36562 2.1ZM15.96 2.1C15.558 2.1 15.0839 2.13281 14.6344 2.205C14.9707 3.19102 14.9838 4.36898 14.6869 5.21062C14.8181 5.49937 14.8788 5.85047 14.8444 6.23438L14.8312 6.26062V6.28687C14.7066 7.11211 14.403 7.61414 14.0437 7.88812C13.9076 8.45578 13.6303 9.17273 13.2431 9.63375C13.2448 9.99469 13.2579 10.3195 13.2825 10.7362C13.5073 11.0939 14.2521 11.3827 14.9756 11.6681C16.2898 12.1849 18.0337 12.8855 18.6769 14.7H20.58C21 14.7 21 14.2931 21 14.2931C21.0016 11.0447 17.4054 11.8141 16.8656 10.3294C16.8197 9.83391 16.8131 9.87984 16.8131 9.38437C17.0379 9.24984 17.4513 8.49352 17.4956 7.86187C17.6761 7.86187 17.9435 7.67648 18.0337 6.95625C18.078 6.59695 17.9452 6.33117 17.8106 6.28687C18.352 5.56664 18.2634 2.73 16.2356 2.73L15.96 2.1Z" fill="white"/>
</svg>
