<svg width="28" height="26" viewBox="0 0 28 26" fill="none" xmlns="http://www.w3.org/2000/svg">
  <path d="M25.8467 0.002207C25.4674 0.0189382 25.1141 0.1294 24.8031 0.255137C24.5117 0.372344 23.3984 0.849832 21.6449 1.60182C19.8898 2.35446 17.5659 3.35218 15.0869 4.41822C10.129 6.55031 4.55491 8.9503 1.69987 10.1786C1.59251 10.2248 1.21791 10.3445 0.820312 10.6549C0.422717 10.9653 0 11.6085 0 12.3251C0 12.903 0.275412 13.4771 0.62207 13.8199C0.968728 14.1627 1.33554 14.332 1.64974 14.4602C2.78977 14.9254 6.32549 16.3723 6.99316 16.6454C7.22814 17.3652 8.50791 21.2801 8.80469 22.2395C9.00033 22.8727 9.18656 23.2692 9.42904 23.5839C9.55027 23.7413 9.6912 23.8792 9.86198 23.9872C9.93024 24.0304 10.0051 24.0637 10.0807 24.0943L10.0853 24.0966C10.1027 24.1036 10.1177 24.1155 10.1354 24.1217C10.1688 24.1333 10.1911 24.1347 10.2357 24.1445C10.4134 24.2019 10.5928 24.2379 10.7529 24.2379C11.4356 24.2379 11.8535 23.8619 11.8535 23.8619L11.8786 23.8437L15.39 20.8062L19.6488 24.8349C19.7087 24.9197 20.268 25.6871 21.5013 25.6871C22.2336 25.6871 22.8145 25.3196 23.1875 24.9283C23.5605 24.537 23.7928 24.1259 23.8916 23.609V23.6067C23.984 23.1183 27.9089 2.969 27.9089 2.969L27.902 2.99635C28.0169 2.47192 28.047 1.98352 27.9202 1.50156C27.7935 1.0196 27.4594 0.558142 27.0452 0.309824C26.6311 0.0615619 26.2259 -0.0145243 25.8467 0.002207ZM25.6279 2.44036C25.6223 2.47441 25.6321 2.45729 25.6234 2.49732L25.6211 2.511L25.6188 2.52467C25.6188 2.52467 21.7426 22.4162 21.5993 23.1738C21.6098 23.1165 21.5618 23.2303 21.5127 23.2991C21.4432 23.2512 21.3008 23.1897 21.3008 23.1897L21.278 23.1646L15.4606 17.6617L11.3477 21.2164L12.5713 16.3173C12.5713 16.3173 20.2202 8.39956 20.681 7.93873C21.052 7.57006 21.1299 7.44155 21.1299 7.31438C21.1299 7.14405 21.0411 7.02044 20.8428 7.02044C20.6643 7.02044 20.4242 7.19398 20.2959 7.27564C18.6239 8.34145 11.2838 12.6194 7.99349 14.5331C7.47061 14.3191 3.83794 12.8322 2.60677 12.3297C2.61609 12.3256 2.61302 12.327 2.62272 12.3228C5.47851 11.0942 11.0502 8.69421 16.0075 6.56243C18.4861 5.49653 20.8118 4.49805 22.5654 3.74602C24.2921 3.00557 25.4918 2.49597 25.6279 2.44036Z" fill="#2C383F" />
</svg>
